# xmcd
#
# Track frame offsets:
#	150
#	9677
#	21810
#	34457
#	49132
#	61085
#	76092
#	100092
#	110435
#	130875
#	140405
#	156487
#	166827
#	182547
#	193015
#	203292
#
# Disc length: 2953 seconds
#
# Revision: 1
# Processed by: cddbd v1.4PL0 Copyright (c) Steve Scherf et al.
# Submitted via: audiograbber 1.81.03
#
DISCID=cb0b8710
DTITLE=Hits of Western Swing - Hits of Western Swing
DYEAR=1999
DGENRE=Country
TTITLE0=My Window Faces South
TTITLE1=Route 66
TTITLE2=San Antonio Rose
TTITLE3=Hey Good Lookin'
TTITLE4=Stand By Your Man
TTITLE5=Settin' The Woods On Fire
TTITLE6=Ramblin' Man
TTITLE7=Have You Ever Been Lonely
TTITLE8=Call Me The Breeze
TTITLE9=Breakdown On The Freeway
TTITLE10=Maiden's Prayer
TTITLE11=I'll See You In My Dreams
TTITLE12=Hawaii How Are Ya?
TTITLE13=Cherokee Maiden
TTITLE14=Across The Alley From The Alamo
TTITLE15=Faded Love
EXTD=
EXTT0=
EXTT1=
EXTT2=
EXTT3=
EXTT4=
EXTT5=
EXTT6=
EXTT7=
EXTT8=
EXTT9=
EXTT10=
EXTT11=
EXTT12=
EXTT13=
EXTT14=
EXTT15=
PLAYORDER=
